G04 #@! TF.GenerationSoftware,KiCad,Pcbnew,7.0.9-7.0.9~ubuntu22.04.1*
G04 #@! TF.CreationDate,2023-12-24T14:58:38+01:00*
G04 #@! TF.ProjectId,UPDI programmer,55504449-2070-4726-9f67-72616d6d6572,rev?*
G04 #@! TF.SameCoordinates,Original*
G04 #@! TF.FileFunction,Legend,Top*
G04 #@! TF.FilePolarity,Positive*
%FSLAX46Y46*%
G04 Gerber Fmt 4.6, Leading zero omitted, Abs format (unit mm)*
G04 Created by KiCad (PCBNEW 7.0.9-7.0.9~ubuntu22.04.1) date 2023-12-24 14:58:38*
%MOMM*%
%LPD*%
G01*
G04 APERTURE LIST*
%ADD10C,0.300000*%
%ADD11C,0.200000*%
%ADD12C,0.150000*%
%ADD13C,0.120000*%
G04 APERTURE END LIST*
D10*
X-4750000Y500000D02*
X-9500000Y8000000D01*
X-3750000Y500000D02*
X-4750000Y500000D01*
D11*
X3796742Y6175565D02*
X4768171Y6175565D01*
X4768171Y6175565D02*
X4882457Y6232708D01*
X4882457Y6232708D02*
X4939600Y6289850D01*
X4939600Y6289850D02*
X4996742Y6404136D01*
X4996742Y6404136D02*
X4996742Y6632708D01*
X4996742Y6632708D02*
X4939600Y6746993D01*
X4939600Y6746993D02*
X4882457Y6804136D01*
X4882457Y6804136D02*
X4768171Y6861279D01*
X4768171Y6861279D02*
X3796742Y6861279D01*
X4996742Y7432708D02*
X3796742Y7432708D01*
X3796742Y7432708D02*
X3796742Y7889851D01*
X3796742Y7889851D02*
X3853885Y8004136D01*
X3853885Y8004136D02*
X3911028Y8061279D01*
X3911028Y8061279D02*
X4025314Y8118422D01*
X4025314Y8118422D02*
X4196742Y8118422D01*
X4196742Y8118422D02*
X4311028Y8061279D01*
X4311028Y8061279D02*
X4368171Y8004136D01*
X4368171Y8004136D02*
X4425314Y7889851D01*
X4425314Y7889851D02*
X4425314Y7432708D01*
X4996742Y8632708D02*
X3796742Y8632708D01*
X3796742Y8632708D02*
X3796742Y8918422D01*
X3796742Y8918422D02*
X3853885Y9089851D01*
X3853885Y9089851D02*
X3968171Y9204136D01*
X3968171Y9204136D02*
X4082457Y9261279D01*
X4082457Y9261279D02*
X4311028Y9318422D01*
X4311028Y9318422D02*
X4482457Y9318422D01*
X4482457Y9318422D02*
X4711028Y9261279D01*
X4711028Y9261279D02*
X4825314Y9204136D01*
X4825314Y9204136D02*
X4939600Y9089851D01*
X4939600Y9089851D02*
X4996742Y8918422D01*
X4996742Y8918422D02*
X4996742Y8632708D01*
X4996742Y9832708D02*
X3796742Y9832708D01*
X2142742Y30154137D02*
X2142742Y30896994D01*
X2142742Y30896994D02*
X2599885Y30496994D01*
X2599885Y30496994D02*
X2599885Y30668423D01*
X2599885Y30668423D02*
X2657028Y30782708D01*
X2657028Y30782708D02*
X2714171Y30839851D01*
X2714171Y30839851D02*
X2828457Y30896994D01*
X2828457Y30896994D02*
X3114171Y30896994D01*
X3114171Y30896994D02*
X3228457Y30839851D01*
X3228457Y30839851D02*
X3285600Y30782708D01*
X3285600Y30782708D02*
X3342742Y30668423D01*
X3342742Y30668423D02*
X3342742Y30325566D01*
X3342742Y30325566D02*
X3285600Y30211280D01*
X3285600Y30211280D02*
X3228457Y30154137D01*
X3285600Y31468423D02*
X3342742Y31468423D01*
X3342742Y31468423D02*
X3457028Y31411280D01*
X3457028Y31411280D02*
X3514171Y31354137D01*
X2142742Y31868423D02*
X2142742Y32611280D01*
X2142742Y32611280D02*
X2599885Y32211280D01*
X2599885Y32211280D02*
X2599885Y32382709D01*
X2599885Y32382709D02*
X2657028Y32496994D01*
X2657028Y32496994D02*
X2714171Y32554137D01*
X2714171Y32554137D02*
X2828457Y32611280D01*
X2828457Y32611280D02*
X3114171Y32611280D01*
X3114171Y32611280D02*
X3228457Y32554137D01*
X3228457Y32554137D02*
X3285600Y32496994D01*
X3285600Y32496994D02*
X3342742Y32382709D01*
X3342742Y32382709D02*
X3342742Y32039852D01*
X3342742Y32039852D02*
X3285600Y31925566D01*
X3285600Y31925566D02*
X3228457Y31868423D01*
X2142742Y32954137D02*
X3342742Y33354137D01*
X3342742Y33354137D02*
X2142742Y33754137D01*
X2142742Y38988721D02*
X2142742Y38417293D01*
X2142742Y38417293D02*
X2714171Y38360150D01*
X2714171Y38360150D02*
X2657028Y38417293D01*
X2657028Y38417293D02*
X2599885Y38531578D01*
X2599885Y38531578D02*
X2599885Y38817293D01*
X2599885Y38817293D02*
X2657028Y38931578D01*
X2657028Y38931578D02*
X2714171Y38988721D01*
X2714171Y38988721D02*
X2828457Y39045864D01*
X2828457Y39045864D02*
X3114171Y39045864D01*
X3114171Y39045864D02*
X3228457Y38988721D01*
X3228457Y38988721D02*
X3285600Y38931578D01*
X3285600Y38931578D02*
X3342742Y38817293D01*
X3342742Y38817293D02*
X3342742Y38531578D01*
X3342742Y38531578D02*
X3285600Y38417293D01*
X3285600Y38417293D02*
X3228457Y38360150D01*
X2142742Y39388721D02*
X3342742Y39788721D01*
X3342742Y39788721D02*
X2142742Y40188721D01*
X-6857258Y6804137D02*
X-5657258Y7204137D01*
X-5657258Y7204137D02*
X-6857258Y7604137D01*
X-5771543Y8689851D02*
X-5714400Y8632708D01*
X-5714400Y8632708D02*
X-5657258Y8461280D01*
X-5657258Y8461280D02*
X-5657258Y8346994D01*
X-5657258Y8346994D02*
X-5714400Y8175565D01*
X-5714400Y8175565D02*
X-5828686Y8061280D01*
X-5828686Y8061280D02*
X-5942972Y8004137D01*
X-5942972Y8004137D02*
X-6171543Y7946994D01*
X-6171543Y7946994D02*
X-6342972Y7946994D01*
X-6342972Y7946994D02*
X-6571543Y8004137D01*
X-6571543Y8004137D02*
X-6685829Y8061280D01*
X-6685829Y8061280D02*
X-6800115Y8175565D01*
X-6800115Y8175565D02*
X-6857258Y8346994D01*
X-6857258Y8346994D02*
X-6857258Y8461280D01*
X-6857258Y8461280D02*
X-6800115Y8632708D01*
X-6800115Y8632708D02*
X-6742972Y8689851D01*
X-5771543Y9889851D02*
X-5714400Y9832708D01*
X-5714400Y9832708D02*
X-5657258Y9661280D01*
X-5657258Y9661280D02*
X-5657258Y9546994D01*
X-5657258Y9546994D02*
X-5714400Y9375565D01*
X-5714400Y9375565D02*
X-5828686Y9261280D01*
X-5828686Y9261280D02*
X-5942972Y9204137D01*
X-5942972Y9204137D02*
X-6171543Y9146994D01*
X-6171543Y9146994D02*
X-6342972Y9146994D01*
X-6342972Y9146994D02*
X-6571543Y9204137D01*
X-6571543Y9204137D02*
X-6685829Y9261280D01*
X-6685829Y9261280D02*
X-6800115Y9375565D01*
X-6800115Y9375565D02*
X-6857258Y9546994D01*
X-6857258Y9546994D02*
X-6857258Y9661280D01*
X-6857258Y9661280D02*
X-6800115Y9832708D01*
X-6800115Y9832708D02*
X-6742972Y9889851D01*
X-5050115Y7375565D02*
X-5107258Y7261279D01*
X-5107258Y7261279D02*
X-5107258Y7089851D01*
X-5107258Y7089851D02*
X-5050115Y6918422D01*
X-5050115Y6918422D02*
X-4935829Y6804137D01*
X-4935829Y6804137D02*
X-4821543Y6746994D01*
X-4821543Y6746994D02*
X-4592972Y6689851D01*
X-4592972Y6689851D02*
X-4421543Y6689851D01*
X-4421543Y6689851D02*
X-4192972Y6746994D01*
X-4192972Y6746994D02*
X-4078686Y6804137D01*
X-4078686Y6804137D02*
X-3964400Y6918422D01*
X-3964400Y6918422D02*
X-3907258Y7089851D01*
X-3907258Y7089851D02*
X-3907258Y7204137D01*
X-3907258Y7204137D02*
X-3964400Y7375565D01*
X-3964400Y7375565D02*
X-4021543Y7432708D01*
X-4021543Y7432708D02*
X-4421543Y7432708D01*
X-4421543Y7432708D02*
X-4421543Y7204137D01*
X-3907258Y7946994D02*
X-5107258Y7946994D01*
X-5107258Y7946994D02*
X-3907258Y8632708D01*
X-3907258Y8632708D02*
X-5107258Y8632708D01*
X-3907258Y9204137D02*
X-5107258Y9204137D01*
X-5107258Y9204137D02*
X-5107258Y9489851D01*
X-5107258Y9489851D02*
X-5050115Y9661280D01*
X-5050115Y9661280D02*
X-4935829Y9775565D01*
X-4935829Y9775565D02*
X-4821543Y9832708D01*
X-4821543Y9832708D02*
X-4592972Y9889851D01*
X-4592972Y9889851D02*
X-4421543Y9889851D01*
X-4421543Y9889851D02*
X-4192972Y9832708D01*
X-4192972Y9832708D02*
X-4078686Y9775565D01*
X-4078686Y9775565D02*
X-3964400Y9661280D01*
X-3964400Y9661280D02*
X-3907258Y9489851D01*
X-3907258Y9489851D02*
X-3907258Y9204137D01*
D12*
X-1545181Y13511906D02*
X-2545181Y13511906D01*
X-2545181Y13511906D02*
X-2545181Y13750001D01*
X-2545181Y13750001D02*
X-2497562Y13892858D01*
X-2497562Y13892858D02*
X-2402324Y13988096D01*
X-2402324Y13988096D02*
X-2307086Y14035715D01*
X-2307086Y14035715D02*
X-2116610Y14083334D01*
X-2116610Y14083334D02*
X-1973753Y14083334D01*
X-1973753Y14083334D02*
X-1783277Y14035715D01*
X-1783277Y14035715D02*
X-1688039Y13988096D01*
X-1688039Y13988096D02*
X-1592800Y13892858D01*
X-1592800Y13892858D02*
X-1545181Y13750001D01*
X-1545181Y13750001D02*
X-1545181Y13511906D01*
X-1545181Y15035715D02*
X-1545181Y14464287D01*
X-1545181Y14750001D02*
X-2545181Y14750001D01*
X-2545181Y14750001D02*
X-2402324Y14654763D01*
X-2402324Y14654763D02*
X-2307086Y14559525D01*
X-2307086Y14559525D02*
X-2259467Y14464287D01*
X8454819Y42583334D02*
X7978628Y42250001D01*
X8454819Y42011906D02*
X7454819Y42011906D01*
X7454819Y42011906D02*
X7454819Y42392858D01*
X7454819Y42392858D02*
X7502438Y42488096D01*
X7502438Y42488096D02*
X7550057Y42535715D01*
X7550057Y42535715D02*
X7645295Y42583334D01*
X7645295Y42583334D02*
X7788152Y42583334D01*
X7788152Y42583334D02*
X7883390Y42535715D01*
X7883390Y42535715D02*
X7931009Y42488096D01*
X7931009Y42488096D02*
X7978628Y42392858D01*
X7978628Y42392858D02*
X7978628Y42011906D01*
X7454819Y42916668D02*
X7454819Y43535715D01*
X7454819Y43535715D02*
X7835771Y43202382D01*
X7835771Y43202382D02*
X7835771Y43345239D01*
X7835771Y43345239D02*
X7883390Y43440477D01*
X7883390Y43440477D02*
X7931009Y43488096D01*
X7931009Y43488096D02*
X8026247Y43535715D01*
X8026247Y43535715D02*
X8264342Y43535715D01*
X8264342Y43535715D02*
X8359580Y43488096D01*
X8359580Y43488096D02*
X8407200Y43440477D01*
X8407200Y43440477D02*
X8454819Y43345239D01*
X8454819Y43345239D02*
X8454819Y43059525D01*
X8454819Y43059525D02*
X8407200Y42964287D01*
X8407200Y42964287D02*
X8359580Y42916668D01*
X-5820420Y19333334D02*
X-5772800Y19285715D01*
X-5772800Y19285715D02*
X-5725181Y19142858D01*
X-5725181Y19142858D02*
X-5725181Y19047620D01*
X-5725181Y19047620D02*
X-5772800Y18904763D01*
X-5772800Y18904763D02*
X-5868039Y18809525D01*
X-5868039Y18809525D02*
X-5963277Y18761906D01*
X-5963277Y18761906D02*
X-6153753Y18714287D01*
X-6153753Y18714287D02*
X-6296610Y18714287D01*
X-6296610Y18714287D02*
X-6487086Y18761906D01*
X-6487086Y18761906D02*
X-6582324Y18809525D01*
X-6582324Y18809525D02*
X-6677562Y18904763D01*
X-6677562Y18904763D02*
X-6725181Y19047620D01*
X-6725181Y19047620D02*
X-6725181Y19142858D01*
X-6725181Y19142858D02*
X-6677562Y19285715D01*
X-6677562Y19285715D02*
X-6629943Y19333334D01*
X-6391848Y20190477D02*
X-5725181Y20190477D01*
X-6772800Y19952382D02*
X-6058515Y19714287D01*
X-6058515Y19714287D02*
X-6058515Y20333334D01*
X4134819Y14083334D02*
X3658628Y13750001D01*
X4134819Y13511906D02*
X3134819Y13511906D01*
X3134819Y13511906D02*
X3134819Y13892858D01*
X3134819Y13892858D02*
X3182438Y13988096D01*
X3182438Y13988096D02*
X3230057Y14035715D01*
X3230057Y14035715D02*
X3325295Y14083334D01*
X3325295Y14083334D02*
X3468152Y14083334D01*
X3468152Y14083334D02*
X3563390Y14035715D01*
X3563390Y14035715D02*
X3611009Y13988096D01*
X3611009Y13988096D02*
X3658628Y13892858D01*
X3658628Y13892858D02*
X3658628Y13511906D01*
X3468152Y14940477D02*
X4134819Y14940477D01*
X3087200Y14702382D02*
X3801485Y14464287D01*
X3801485Y14464287D02*
X3801485Y15083334D01*
X-5795181Y42583334D02*
X-6271372Y42250001D01*
X-5795181Y42011906D02*
X-6795181Y42011906D01*
X-6795181Y42011906D02*
X-6795181Y42392858D01*
X-6795181Y42392858D02*
X-6747562Y42488096D01*
X-6747562Y42488096D02*
X-6699943Y42535715D01*
X-6699943Y42535715D02*
X-6604705Y42583334D01*
X-6604705Y42583334D02*
X-6461848Y42583334D01*
X-6461848Y42583334D02*
X-6366610Y42535715D01*
X-6366610Y42535715D02*
X-6318991Y42488096D01*
X-6318991Y42488096D02*
X-6271372Y42392858D01*
X-6271372Y42392858D02*
X-6271372Y42011906D01*
X-5795181Y43535715D02*
X-5795181Y42964287D01*
X-5795181Y43250001D02*
X-6795181Y43250001D01*
X-6795181Y43250001D02*
X-6652324Y43154763D01*
X-6652324Y43154763D02*
X-6557086Y43059525D01*
X-6557086Y43059525D02*
X-6509467Y42964287D01*
X-7583334Y40068991D02*
X-7916667Y40068991D01*
X-7916667Y39545181D02*
X-7916667Y40545181D01*
X-7916667Y40545181D02*
X-7440477Y40545181D01*
X-6535715Y39545181D02*
X-7107143Y39545181D01*
X-6821429Y39545181D02*
X-6821429Y40545181D01*
X-6821429Y40545181D02*
X-6916667Y40402324D01*
X-6916667Y40402324D02*
X-7011905Y40307086D01*
X-7011905Y40307086D02*
X-7107143Y40259467D01*
X6704819Y42583334D02*
X6228628Y42250001D01*
X6704819Y42011906D02*
X5704819Y42011906D01*
X5704819Y42011906D02*
X5704819Y42392858D01*
X5704819Y42392858D02*
X5752438Y42488096D01*
X5752438Y42488096D02*
X5800057Y42535715D01*
X5800057Y42535715D02*
X5895295Y42583334D01*
X5895295Y42583334D02*
X6038152Y42583334D01*
X6038152Y42583334D02*
X6133390Y42535715D01*
X6133390Y42535715D02*
X6181009Y42488096D01*
X6181009Y42488096D02*
X6228628Y42392858D01*
X6228628Y42392858D02*
X6228628Y42011906D01*
X5800057Y42964287D02*
X5752438Y43011906D01*
X5752438Y43011906D02*
X5704819Y43107144D01*
X5704819Y43107144D02*
X5704819Y43345239D01*
X5704819Y43345239D02*
X5752438Y43440477D01*
X5752438Y43440477D02*
X5800057Y43488096D01*
X5800057Y43488096D02*
X5895295Y43535715D01*
X5895295Y43535715D02*
X5990533Y43535715D01*
X5990533Y43535715D02*
X6133390Y43488096D01*
X6133390Y43488096D02*
X6704819Y42916668D01*
X6704819Y42916668D02*
X6704819Y43535715D01*
X-8011905Y35295181D02*
X-8011905Y34485658D01*
X-8011905Y34485658D02*
X-7964286Y34390420D01*
X-7964286Y34390420D02*
X-7916667Y34342800D01*
X-7916667Y34342800D02*
X-7821429Y34295181D01*
X-7821429Y34295181D02*
X-7630953Y34295181D01*
X-7630953Y34295181D02*
X-7535715Y34342800D01*
X-7535715Y34342800D02*
X-7488096Y34390420D01*
X-7488096Y34390420D02*
X-7440477Y34485658D01*
X-7440477Y34485658D02*
X-7440477Y35295181D01*
X-7011905Y35199943D02*
X-6964286Y35247562D01*
X-6964286Y35247562D02*
X-6869048Y35295181D01*
X-6869048Y35295181D02*
X-6630953Y35295181D01*
X-6630953Y35295181D02*
X-6535715Y35247562D01*
X-6535715Y35247562D02*
X-6488096Y35199943D01*
X-6488096Y35199943D02*
X-6440477Y35104705D01*
X-6440477Y35104705D02*
X-6440477Y35009467D01*
X-6440477Y35009467D02*
X-6488096Y34866610D01*
X-6488096Y34866610D02*
X-7059524Y34295181D01*
X-7059524Y34295181D02*
X-6440477Y34295181D01*
X-7166667Y37140420D02*
X-7214286Y37092800D01*
X-7214286Y37092800D02*
X-7357143Y37045181D01*
X-7357143Y37045181D02*
X-7452381Y37045181D01*
X-7452381Y37045181D02*
X-7595238Y37092800D01*
X-7595238Y37092800D02*
X-7690476Y37188039D01*
X-7690476Y37188039D02*
X-7738095Y37283277D01*
X-7738095Y37283277D02*
X-7785714Y37473753D01*
X-7785714Y37473753D02*
X-7785714Y37616610D01*
X-7785714Y37616610D02*
X-7738095Y37807086D01*
X-7738095Y37807086D02*
X-7690476Y37902324D01*
X-7690476Y37902324D02*
X-7595238Y37997562D01*
X-7595238Y37997562D02*
X-7452381Y38045181D01*
X-7452381Y38045181D02*
X-7357143Y38045181D01*
X-7357143Y38045181D02*
X-7214286Y37997562D01*
X-7214286Y37997562D02*
X-7166667Y37949943D01*
X-6785714Y37949943D02*
X-6738095Y37997562D01*
X-6738095Y37997562D02*
X-6642857Y38045181D01*
X-6642857Y38045181D02*
X-6404762Y38045181D01*
X-6404762Y38045181D02*
X-6309524Y37997562D01*
X-6309524Y37997562D02*
X-6261905Y37949943D01*
X-6261905Y37949943D02*
X-6214286Y37854705D01*
X-6214286Y37854705D02*
X-6214286Y37759467D01*
X-6214286Y37759467D02*
X-6261905Y37616610D01*
X-6261905Y37616610D02*
X-6833333Y37045181D01*
X-6833333Y37045181D02*
X-6214286Y37045181D01*
X-761905Y29795181D02*
X-761905Y28985658D01*
X-761905Y28985658D02*
X-714286Y28890420D01*
X-714286Y28890420D02*
X-666667Y28842800D01*
X-666667Y28842800D02*
X-571429Y28795181D01*
X-571429Y28795181D02*
X-380953Y28795181D01*
X-380953Y28795181D02*
X-285715Y28842800D01*
X-285715Y28842800D02*
X-238096Y28890420D01*
X-238096Y28890420D02*
X-190477Y28985658D01*
X-190477Y28985658D02*
X-190477Y29795181D01*
X809523Y28795181D02*
X238095Y28795181D01*
X523809Y28795181D02*
X523809Y29795181D01*
X523809Y29795181D02*
X428571Y29652324D01*
X428571Y29652324D02*
X333333Y29557086D01*
X333333Y29557086D02*
X238095Y29509467D01*
X8359580Y25333334D02*
X8407200Y25285715D01*
X8407200Y25285715D02*
X8454819Y25142858D01*
X8454819Y25142858D02*
X8454819Y25047620D01*
X8454819Y25047620D02*
X8407200Y24904763D01*
X8407200Y24904763D02*
X8311961Y24809525D01*
X8311961Y24809525D02*
X8216723Y24761906D01*
X8216723Y24761906D02*
X8026247Y24714287D01*
X8026247Y24714287D02*
X7883390Y24714287D01*
X7883390Y24714287D02*
X7692914Y24761906D01*
X7692914Y24761906D02*
X7597676Y24809525D01*
X7597676Y24809525D02*
X7502438Y24904763D01*
X7502438Y24904763D02*
X7454819Y25047620D01*
X7454819Y25047620D02*
X7454819Y25142858D01*
X7454819Y25142858D02*
X7502438Y25285715D01*
X7502438Y25285715D02*
X7550057Y25333334D01*
X8454819Y26285715D02*
X8454819Y25714287D01*
X8454819Y26000001D02*
X7454819Y26000001D01*
X7454819Y26000001D02*
X7597676Y25904763D01*
X7597676Y25904763D02*
X7692914Y25809525D01*
X7692914Y25809525D02*
X7740533Y25714287D01*
X-7166667Y31640420D02*
X-7214286Y31592800D01*
X-7214286Y31592800D02*
X-7357143Y31545181D01*
X-7357143Y31545181D02*
X-7452381Y31545181D01*
X-7452381Y31545181D02*
X-7595238Y31592800D01*
X-7595238Y31592800D02*
X-7690476Y31688039D01*
X-7690476Y31688039D02*
X-7738095Y31783277D01*
X-7738095Y31783277D02*
X-7785714Y31973753D01*
X-7785714Y31973753D02*
X-7785714Y32116610D01*
X-7785714Y32116610D02*
X-7738095Y32307086D01*
X-7738095Y32307086D02*
X-7690476Y32402324D01*
X-7690476Y32402324D02*
X-7595238Y32497562D01*
X-7595238Y32497562D02*
X-7452381Y32545181D01*
X-7452381Y32545181D02*
X-7357143Y32545181D01*
X-7357143Y32545181D02*
X-7214286Y32497562D01*
X-7214286Y32497562D02*
X-7166667Y32449943D01*
X-6833333Y32545181D02*
X-6214286Y32545181D01*
X-6214286Y32545181D02*
X-6547619Y32164229D01*
X-6547619Y32164229D02*
X-6404762Y32164229D01*
X-6404762Y32164229D02*
X-6309524Y32116610D01*
X-6309524Y32116610D02*
X-6261905Y32068991D01*
X-6261905Y32068991D02*
X-6214286Y31973753D01*
X-6214286Y31973753D02*
X-6214286Y31735658D01*
X-6214286Y31735658D02*
X-6261905Y31640420D01*
X-6261905Y31640420D02*
X-6309524Y31592800D01*
X-6309524Y31592800D02*
X-6404762Y31545181D01*
X-6404762Y31545181D02*
X-6690476Y31545181D01*
X-6690476Y31545181D02*
X-6785714Y31592800D01*
X-6785714Y31592800D02*
X-6833333Y31640420D01*
D13*
G04 #@! TO.C,J1*
X4595000Y46375000D02*
X4595000Y47275000D01*
X4595000Y49975000D02*
X4595000Y52705000D01*
X4595000Y52705000D02*
X-4595000Y52705000D01*
X4475000Y43295000D02*
X-4475000Y43295000D01*
X-4595000Y46375000D02*
X-4595000Y47275000D01*
X-4595000Y49975000D02*
X-4595000Y52705000D01*
G04 #@! TO.C,D1*
X1000000Y16610000D02*
X-1000000Y16610000D01*
X1000000Y16610000D02*
X1000000Y12600000D01*
X-1000000Y16610000D02*
X-1000000Y12600000D01*
G04 #@! TO.C,R3*
X8522500Y45754724D02*
X8522500Y45245276D01*
X7477500Y45754724D02*
X7477500Y45245276D01*
G04 #@! TO.C,C4*
X-5260000Y19353733D02*
X-5260000Y19646267D01*
X-4240000Y19353733D02*
X-4240000Y19646267D01*
G04 #@! TO.C,R4*
X2772500Y14504724D02*
X2772500Y13995276D01*
X1727500Y14504724D02*
X1727500Y13995276D01*
G04 #@! TO.C,R1*
X-5727500Y45754724D02*
X-5727500Y45245276D01*
X-6772500Y45754724D02*
X-6772500Y45245276D01*
G04 #@! TO.C,JP1*
X6800000Y20350000D02*
X6200000Y20350000D01*
X5500000Y21050000D02*
X5500000Y22450000D01*
X7500000Y22450000D02*
X7500000Y21050000D01*
X6200000Y23150000D02*
X6800000Y23150000D01*
X5500000Y21050000D02*
G75*
G03*
X6200000Y20350000I699999J-1D01*
G01*
X6800000Y20350000D02*
G75*
G03*
X7500000Y21050000I1J699999D01*
G01*
X6200000Y23150000D02*
G75*
G03*
X5500000Y22450000I0J-700000D01*
G01*
X7500000Y22450000D02*
G75*
G03*
X6800000Y23150000I-700000J0D01*
G01*
G04 #@! TO.C,F1*
X-3397936Y39090000D02*
X-4602064Y39090000D01*
X-3397936Y40910000D02*
X-4602064Y40910000D01*
G04 #@! TO.C,R2*
X5727500Y45245276D02*
X5727500Y45754724D01*
X6772500Y45245276D02*
X6772500Y45754724D01*
G04 #@! TO.C,U2*
X-4250000Y36310000D02*
X-5925000Y36310000D01*
X-4250000Y36310000D02*
X-3600000Y36310000D01*
X-4250000Y33190000D02*
X-4900000Y33190000D01*
X-4250000Y33190000D02*
X-3600000Y33190000D01*
D12*
G04 #@! TO.C,SW1*
X3700000Y31700000D02*
X3700000Y40300000D01*
X8300000Y31700000D02*
X8300000Y33900000D01*
X8300000Y38000000D02*
X8300000Y40300000D01*
D13*
G04 #@! TO.C,C2*
X-4103733Y36990000D02*
X-4396267Y36990000D01*
X-4103733Y38010000D02*
X-4396267Y38010000D01*
G04 #@! TO.C,U1*
X0Y17940000D02*
X3450000Y17940000D01*
X0Y17940000D02*
X-1950000Y17940000D01*
X0Y28060000D02*
X1950000Y28060000D01*
X0Y28060000D02*
X-1950000Y28060000D01*
G04 #@! TO.C,C1*
X5990000Y25353733D02*
X5990000Y25646267D01*
X7010000Y25353733D02*
X7010000Y25646267D01*
G04 #@! TO.C,C3*
X-4396267Y32510000D02*
X-4103733Y32510000D01*
X-4396267Y31490000D02*
X-4103733Y31490000D01*
G04 #@! TD*
M02*
