M48
; DRILL file {KiCad 7.0.9-7.0.9~ubuntu22.04.1} date Tue Dec 26 10:47:29 2023
; FORMAT={-:-/ absolute / metric / decimal}
; #@! TF.CreationDate,2023-12-26T10:47:29+01:00
; #@! TF.GenerationSoftware,Kicad,Pcbnew,7.0.9-7.0.9~ubuntu22.04.1
; #@! TF.FileFunction,MixedPlating,1,2
FMAT,2
METRIC
; #@! TA.AperFunction,Plated,PTH,ViaDrill
T1C0.400
; #@! TA.AperFunction,Plated,PTH,ComponentDrill
T2C0.400
; #@! TA.AperFunction,Plated,PTH,ComponentDrill
T3C0.600
; #@! TA.AperFunction,Plated,PTH,ComponentDrill
T4C0.900
; #@! TA.AperFunction,Plated,PTH,ComponentDrill
T5C1.500
%
G90
G05
T1
X-7.178Y23.109
X-7.123Y48.127
X-6.924Y30.994
X-6.659Y7.869
X-6.574Y15.194
X-6.5Y37.5
X-6.25Y43.25
X-4.75Y21.75
X-4.5Y42.5
X-4.392Y2.973
X-4.25Y30.5
X-2.5Y48.0
X-2.0Y32.0
X-1.25Y40.0
X-1.0Y18.5
X0.0Y10.75
X3.0Y47.0
X3.079Y35.727
X3.25Y17.25
X4.25Y42.0
X4.25Y18.5
X5.827Y8.094
X5.924Y15.099
X6.25Y47.75
X6.5Y27.75
X8.116Y38.351
T2
X-2.975Y45.325
X-2.975Y43.975
X-2.125Y45.325
X-2.125Y43.975
X-1.275Y45.325
X-1.275Y43.975
X-0.425Y45.325
X-0.425Y43.975
X0.425Y45.325
X0.425Y43.975
X1.275Y45.325
X1.275Y43.975
X2.125Y45.325
X2.125Y43.975
X2.975Y45.325
X2.975Y43.975
T4
X6.0Y38.0
X6.0Y36.0
X6.0Y34.0
T5
X6.0Y40.1
X6.0Y31.9
T3
X-4.325Y47.935G85X-4.325Y48.735
G05
X-4.325Y44.205G85X-4.325Y45.705
G05
X4.325Y47.935G85X4.325Y48.735
G05
X4.325Y44.205G85X4.325Y45.705
G05
T0
M30
