G04 #@! TF.GenerationSoftware,KiCad,Pcbnew,7.0.9-7.0.9~ubuntu22.04.1*
G04 #@! TF.CreationDate,2023-12-24T14:58:38+01:00*
G04 #@! TF.ProjectId,UPDI programmer,55504449-2070-4726-9f67-72616d6d6572,rev?*
G04 #@! TF.SameCoordinates,Original*
G04 #@! TF.FileFunction,Paste,Top*
G04 #@! TF.FilePolarity,Positive*
%FSLAX46Y46*%
G04 Gerber Fmt 4.6, Leading zero omitted, Abs format (unit mm)*
G04 Created by KiCad (PCBNEW 7.0.9-7.0.9~ubuntu22.04.1) date 2023-12-24 14:58:38*
%MOMM*%
%LPD*%
G01*
G04 APERTURE LIST*
G04 Aperture macros list*
%AMRoundRect*
0 Rectangle with rounded corners*
0 $1 Rounding radius*
0 $2 $3 $4 $5 $6 $7 $8 $9 X,Y pos of 4 corners*
0 Add a 4 corners polygon primitive as box body*
4,1,4,$2,$3,$4,$5,$6,$7,$8,$9,$2,$3,0*
0 Add four circle primitives for the rounded corners*
1,1,$1+$1,$2,$3*
1,1,$1+$1,$4,$5*
1,1,$1+$1,$6,$7*
1,1,$1+$1,$8,$9*
0 Add four rect primitives between the rounded corners*
20,1,$1+$1,$2,$3,$4,$5,0*
20,1,$1+$1,$4,$5,$6,$7,0*
20,1,$1+$1,$6,$7,$8,$9,0*
20,1,$1+$1,$8,$9,$2,$3,0*%
G04 Aperture macros list end*
%ADD10RoundRect,0.225000X-0.375000X0.225000X-0.375000X-0.225000X0.375000X-0.225000X0.375000X0.225000X0*%
%ADD11RoundRect,0.237500X-0.237500X0.250000X-0.237500X-0.250000X0.237500X-0.250000X0.237500X0.250000X0*%
%ADD12RoundRect,0.237500X0.237500X-0.300000X0.237500X0.300000X-0.237500X0.300000X-0.237500X-0.300000X0*%
%ADD13RoundRect,0.250000X0.375000X0.625000X-0.375000X0.625000X-0.375000X-0.625000X0.375000X-0.625000X0*%
%ADD14RoundRect,0.237500X0.237500X-0.250000X0.237500X0.250000X-0.237500X0.250000X-0.237500X-0.250000X0*%
%ADD15RoundRect,0.150000X-0.587500X-0.150000X0.587500X-0.150000X0.587500X0.150000X-0.587500X0.150000X0*%
%ADD16RoundRect,0.237500X0.300000X0.237500X-0.300000X0.237500X-0.300000X-0.237500X0.300000X-0.237500X0*%
%ADD17RoundRect,0.150000X0.825000X0.150000X-0.825000X0.150000X-0.825000X-0.150000X0.825000X-0.150000X0*%
%ADD18RoundRect,0.237500X-0.300000X-0.237500X0.300000X-0.237500X0.300000X0.237500X-0.300000X0.237500X0*%
%ADD19RoundRect,0.375000X-0.375000X-4.625000X0.375000X-4.625000X0.375000X4.625000X-0.375000X4.625000X0*%
G04 APERTURE END LIST*
D10*
G04 #@! TO.C,D1*
X0Y15900000D03*
X0Y12600000D03*
G04 #@! TD*
D11*
G04 #@! TO.C,R3*
X8000000Y46412500D03*
X8000000Y44587500D03*
G04 #@! TD*
D12*
G04 #@! TO.C,C4*
X-4750000Y18637500D03*
X-4750000Y20362500D03*
G04 #@! TD*
D11*
G04 #@! TO.C,R4*
X2250000Y15162500D03*
X2250000Y13337500D03*
G04 #@! TD*
G04 #@! TO.C,R1*
X-6250000Y46412500D03*
X-6250000Y44587500D03*
G04 #@! TD*
D13*
G04 #@! TO.C,F1*
X-2600000Y40000000D03*
X-5400000Y40000000D03*
G04 #@! TD*
D14*
G04 #@! TO.C,R2*
X6250000Y44587500D03*
X6250000Y46412500D03*
G04 #@! TD*
D15*
G04 #@! TO.C,U2*
X-5187500Y35700000D03*
X-5187500Y33800000D03*
X-3312500Y34750000D03*
G04 #@! TD*
D16*
G04 #@! TO.C,C2*
X-3387500Y37500000D03*
X-5112500Y37500000D03*
G04 #@! TD*
D17*
G04 #@! TO.C,U1*
X2475000Y18555000D03*
X2475000Y19825000D03*
X2475000Y21095000D03*
X2475000Y22365000D03*
X2475000Y23635000D03*
X2475000Y24905000D03*
X2475000Y26175000D03*
X2475000Y27445000D03*
X-2475000Y27445000D03*
X-2475000Y26175000D03*
X-2475000Y24905000D03*
X-2475000Y23635000D03*
X-2475000Y22365000D03*
X-2475000Y21095000D03*
X-2475000Y19825000D03*
X-2475000Y18555000D03*
G04 #@! TD*
D12*
G04 #@! TO.C,C1*
X6500000Y24637500D03*
X6500000Y26362500D03*
G04 #@! TD*
D18*
G04 #@! TO.C,C3*
X-5112500Y32000000D03*
X-3387500Y32000000D03*
G04 #@! TD*
D19*
G04 #@! TO.C,J2*
X-2540000Y5000000D03*
X0Y5000000D03*
X2540000Y5000000D03*
G04 #@! TD*
M02*
